<?xml version="1.0" standalone="no"?>
<!DOCTYPE svg PUBLIC "-//W3C//DTD SVG 20010904//EN"
 "http://www.w3.org/TR/2001/REC-SVG-20010904/DTD/svg10.dtd">
<svg version="1.0" xmlns="http://www.w3.org/2000/svg"
 width="500.000000pt" height="500.000000pt" viewBox="0 0 500.000000 500.000000"
 preserveAspectRatio="xMidYMid meet">
<metadata>
Created by potrace 1.14, written by Peter Selinger 2001-2017
</metadata>
<g transform="translate(0.000000,500.000000) scale(0.100000,-0.100000)"
fill="#000000" stroke="none">
<path d="M1001 4974 c-88 -39 -139 -104 -159 -199 -26 -123 37 -248 153 -301
27 -13 64 -24 82 -24 45 0 44 3 58 -165 3 -44 8 -89 11 -100 2 -11 6 -36 8
-55 27 -228 84 -471 147 -623 26 -64 102 -203 118 -217 3 -3 24 -27 46 -55 50
-64 147 -160 255 -255 176 -154 286 -270 321 -339 30 -58 34 -75 34 -141 0
-133 -60 -218 -313 -442 -305 -269 -406 -401 -487 -633 -9 -27 -20 -57 -23
-65 -3 -8 -6 -19 -7 -25 -2 -5 -8 -30 -15 -55 -12 -46 -16 -63 -26 -115 -3
-16 -9 -48 -14 -70 -5 -22 -11 -58 -15 -80 -27 -177 -36 -242 -41 -320 -4 -49
-8 -97 -10 -105 -1 -8 -3 -20 -3 -25 -1 -6 -18 -12 -38 -13 -54 -4 -132 -43
-173 -85 -41 -43 -79 -143 -75 -196 9 -111 62 -193 152 -238 l58 -28 1442 -3
c1420 -2 1443 -2 1495 18 56 21 127 78 148 120 21 41 38 117 34 156 -7 73 -44
150 -94 192 -30 26 -116 62 -147 62 -45 0 -43 -5 -58 155 -8 86 -15 152 -21
185 -2 14 -11 67 -19 118 -33 202 -96 436 -137 510 -10 18 -18 39 -18 46 0 8
-3 16 -7 18 -5 2 -19 23 -32 48 -14 25 -27 47 -30 50 -3 3 -19 24 -34 47 -41
59 -182 202 -329 332 -253 223 -313 308 -313 441 0 62 5 85 28 132 34 70 123
167 281 306 122 108 254 236 291 282 73 91 135 186 135 205 0 8 5 15 10 15 6
0 10 8 10 18 0 10 4 22 9 27 15 16 77 214 100 315 20 92 43 226 56 320 3 25 8
56 10 70 2 14 7 61 11 105 4 44 8 91 9 105 2 14 3 30 4 35 1 6 18 12 39 13 76
5 180 74 217 145 30 58 37 132 20 199 -22 80 -69 139 -145 179 l-45 24 -1455
2 -1455 2 -54 -25z"/>
</g>
</svg>
